bicep_curl
version=1
nRows=101
nColumns=3
inDegrees=yes

# SIMM Motion File Header:
name bicep_curl
datacolumns 3
datarows 101
otherdata 1
range 0.0000 1.0000
endheader
time	/jointset/r_shoulder/r_shoulder_elev/value	/jointset/r_elbow/r_elbow_flex/value
0.0000	0.0000	10.0000
0.0100	0.0000	13.9801
0.0200	0.0000	17.9211
0.0300	0.0000	21.8235
0.0400	0.0000	25.6883
0.0500	0.0000	29.5161
0.0600	0.0000	33.3076
0.0700	0.0000	37.0635
0.0800	0.0000	40.7844
0.0900	0.0000	44.4711
0.1000	0.0000	48.1241
0.1100	0.0000	51.7440
0.1200	0.0000	55.3315
0.1300	0.0000	58.8871
0.1400	0.0000	62.4113
0.1500	0.0000	65.9048
0.1600	0.0000	69.3680
0.1700	0.0000	72.8015
0.1800	0.0000	76.2058
0.1900	0.0000	79.5813
0.2000	0.0000	82.9286
0.2100	0.0000	86.2481
0.2200	0.0000	89.5403
0.2300	0.0000	92.8057
0.2400	0.0000	96.0446
0.2500	0.0000	99.2574
0.2600	0.0000	102.4447
0.2700	0.0000	105.6068
0.2800	0.0000	108.7440
0.2900	0.0000	111.8569
0.3000	0.0000	114.9457
0.3100	0.0000	118.0109
0.3200	0.0000	121.0527
0.3300	0.0000	124.0716
0.3400	0.0000	127.0678
0.3500	0.0000	130.0418
0.3600	0.0000	132.9939
0.3700	0.0000	135.9243
0.3800	0.0000	138.8334
0.3900	0.0000	140.0000
0.4000	0.0000	140.0000
0.4100	0.0000	140.0000
0.4200	0.0000	140.0000
0.4300	0.0000	140.0000
0.4400	0.0000	140.0000
0.4500	0.0000	140.0000
0.4600	0.0000	140.0000
0.4700	0.0000	140.0000
0.4800	0.0000	140.0000
0.4900	0.0000	140.0000
0.5000	0.0000	140.0000
0.5100	0.0000	140.0000
0.5200	0.0000	140.0000
0.5300	0.0000	140.0000
0.5400	0.0000	140.0000
0.5500	0.0000	140.0000
0.5600	0.0000	140.0000
0.5700	0.0000	140.0000
0.5800	0.0000	140.0000
0.5900	0.0000	140.0000
0.6000	0.0000	140.0000
0.6100	0.0000	140.0000
0.6200	0.0000	140.0000
0.6300	0.0000	140.0000
0.6400	0.0000	140.0000
0.6500	0.0000	140.0000
0.6600	0.0000	140.0000
0.6700	0.0000	140.0000
0.6800	0.0000	140.0000
0.6900	0.0000	140.0000
0.7000	0.0000	140.0000
0.7100	0.0000	140.0000
0.7200	0.0000	140.0000
0.7300	0.0000	140.0000
0.7400	0.0000	140.0000
0.7500	0.0000	140.0000
0.7600	0.0000	140.0000
0.7700	0.0000	140.0000
0.7800	0.0000	140.0000
0.7900	0.0000	140.0000
0.8000	0.0000	140.0000
0.8100	0.0000	140.0000
0.8200	0.0000	140.0000
0.8300	0.0000	140.0000
0.8400	0.0000	140.0000
0.8500	0.0000	140.0000
0.8600	0.0000	140.0000
0.8700	0.0000	140.0000
0.8800	0.0000	140.0000
0.8900	0.0000	140.0000
0.9000	0.0000	140.0000
0.9100	0.0000	140.0000
0.9200	0.0000	140.0000
0.9300	0.0000	140.0000
0.9400	0.0000	140.0000
0.9500	0.0000	140.0000
0.9600	0.0000	140.0000
0.9700	0.0000	140.0000
0.9800	0.0000	140.0000
0.9900	0.0000	140.0000
1.0000	0.0000	140.0000
